# xmcd
#
# Track frame offsets:
#	150
#	6565
#	19597
#	29788
#	42608
#	56063
#	66984
#	78637
#	92471
#	104579
#	116904
#
# Disc length: 1628 seconds
#
# Revision: 1
# Processed by: cddbd v1.5.1PL2 Copyright (c) Steve Scherf et al.
# Submitted via: audiograbber 1.83.01
#
DISCID=9f065a0b
DTITLE=Various Artist - A Southern Christmas - 2003 - Stone Mountain Par
DYEAR=2003
DGENRE=Christmas
TTITLE0=Intro
TTITLE1=Do You Hear What I Hear?
TTITLE2=Sleigh Ride
TTITLE3=The Christmas Song
TTITLE4=Christmas Eve In My Hometown
TTITLE5=Christmas Time's A Comin'
TTITLE6=O' Holy Night
TTITLE7=I Wonder As I Wander
TTITLE8=I'll Be Home For Christmas
TTITLE9=White Christmas
TTITLE10=Bluegrass Silent Night
EXTD=
EXTT0=
EXTT1=
EXTT2=
EXTT3=
EXTT4=
EXTT5=
EXTT6=
EXTT7=
EXTT8=
EXTT9=
EXTT10=
PLAYORDER=
